<svg width="100" height="23" viewBox="0 0 100 23" fill="none" xmlns="http://www.w3.org/2000/svg">
<path fill-rule="evenodd" clip-rule="evenodd" d="M10.6748 5.30734L8.07867 3.80776L5.48691 5.30734L0 0.704575V17.8934L8.07867 22.5569L16.1573 17.8934V0.704575L10.6748 5.30734ZM8.07867 5.43736L14.0813 8.9046L8.07867 12.3675L2.07601 8.9046L8.07867 5.43736ZM4.18236 6.06146L1.4129 7.66073V3.73408L4.18236 6.06146ZM14.7444 17.0786C14.7444 17.0786 8.41673 20.7322 8.07867 20.9273C7.71461 20.7149 1.4129 17.0786 1.4129 17.0786V10.1485L8.07867 13.9971L14.7444 10.1485V17.0786ZM14.7444 7.65639L11.975 6.05713L14.7444 3.73408V7.65639Z" fill="#5025B8"/>
<path fill-rule="evenodd" clip-rule="evenodd" d="M24.3177 11.7375H24.4555C24.8964 11.7375 25.5645 11.6755 25.5645 12.3023C25.5645 12.8741 24.8895 12.8534 24.4899 12.8534H24.3177V11.7375ZM25.0479 13.8866C25.9985 13.8866 26.9284 13.5285 26.9284 12.4401C26.9284 11.7168 26.6115 11.214 25.8676 11.1175V11.1038C26.2878 10.8902 26.4393 10.5113 26.4393 10.0429C26.4393 9.051 25.8194 8.69282 24.8964 8.69282H22.9676V13.8866H25.0479ZM24.3177 9.72608H24.4142C24.7792 9.72608 25.1994 9.75361 25.1994 10.2289C25.1994 10.6698 24.8275 10.7318 24.4693 10.7318H24.3177V9.72608Z" fill="#5025B8"/>
<path fill-rule="evenodd" clip-rule="evenodd" d="M31.0477 8.69282H29.6975V13.8866H32.6664V12.7432H31.0477V8.69282Z" fill="#5025B8"/>
<path fill-rule="evenodd" clip-rule="evenodd" d="M37.7844 8.52062C36.2896 8.52062 34.912 9.62275 34.912 11.1933C34.912 12.8741 36.1176 14.0588 37.7844 14.0588C39.4515 14.0588 40.6568 12.8741 40.6568 11.1933C40.6568 9.62275 39.2791 8.52062 37.7844 8.52062ZM37.7844 9.82941C38.5905 9.82941 39.2517 10.4838 39.2517 11.2002C39.2517 12.0957 38.5905 12.7501 37.7844 12.7501C36.9786 12.7501 36.3174 12.0957 36.3174 11.2002C36.3174 10.4838 36.9786 9.82941 37.7844 9.82941Z" fill="#5025B8"/>
<path fill-rule="evenodd" clip-rule="evenodd" d="M47.0632 8.8168C46.6637 8.65149 46.2641 8.55505 45.8301 8.55505C45.1 8.55505 44.3628 8.87191 43.8532 9.39543C43.3572 9.90517 43.0885 10.5871 43.0885 11.2966C43.0885 12.0681 43.3502 12.7432 43.9221 13.2598C44.4591 13.7489 45.1482 14.0244 45.8713 14.0244C46.2916 14.0244 46.6155 13.9211 47.0632 13.7833V12.1646C46.7808 12.5021 46.3398 12.7156 45.8991 12.7156C45.0585 12.7156 44.4936 12.1232 44.4936 11.3035C44.4936 10.4976 45.0518 9.86384 45.8783 9.86384C46.3397 9.86384 46.7875 10.0636 47.0632 10.4356V8.8168Z" fill="#5025B8"/>
<path fill-rule="evenodd" clip-rule="evenodd" d="M51.327 10.8351H51.3133V8.69282H49.9631V13.8866H51.3133V11.6341H51.327L53.0697 13.8866H54.8195L52.5668 11.152L54.6334 8.69282H52.9596L51.327 10.8351Z" fill="#5025B8"/>
<path fill-rule="evenodd" clip-rule="evenodd" d="M57.2509 13.8866H59.1659C60.6055 13.8866 61.8041 12.7501 61.8041 11.2898C61.8041 9.82941 60.6125 8.69282 59.1659 8.69282H57.2509V13.8866ZM58.6011 9.8363H58.918C59.786 9.8363 60.399 10.3598 60.399 11.2898C60.399 12.3023 59.71 12.7432 58.9043 12.7432H58.6011V9.8363Z" fill="#5025B8"/>
<path fill-rule="evenodd" clip-rule="evenodd" d="M67.6798 12.9843L68.0175 13.8866H69.457L67.5008 8.69282H66.0268L64.0291 13.8866H65.4619L65.82 12.9843H67.6798ZM67.3148 11.951H66.1921L66.7499 10.2978H66.7636L67.3148 11.951Z" fill="#5025B8"/>
<path fill-rule="evenodd" clip-rule="evenodd" d="M74.899 9.8363V8.69282H71.944V13.8866H74.899V12.7432H73.2938V11.8477H74.8164V10.7042H73.2938V9.8363H74.899Z" fill="#5025B8"/>
<path fill-rule="evenodd" clip-rule="evenodd" d="M77.4891 13.8866H78.8323L79.2663 10.8971H79.28L80.4716 13.8866H81.009L82.2558 10.8971H82.2695L82.6483 13.8866H83.9985L83.2132 8.69282H81.87L80.754 11.4688L79.7003 8.69282H78.3708L77.4891 13.8866Z" fill="#5025B8"/>
<path fill-rule="evenodd" clip-rule="evenodd" d="M89.2474 8.52062C87.7527 8.52062 86.375 9.62275 86.375 11.1933C86.375 12.8741 87.5803 14.0588 89.2474 14.0588C90.9142 14.0588 92.1199 12.8741 92.1199 11.1933C92.1199 9.62275 90.7422 8.52062 89.2474 8.52062ZM89.2474 9.82941C90.0532 9.82941 90.7144 10.4838 90.7144 11.2002C90.7144 12.0957 90.0532 12.7501 89.2474 12.7501C88.4413 12.7501 87.7801 12.0957 87.7801 11.2002C87.7801 10.4838 88.4413 9.82941 89.2474 9.82941Z" fill="#5025B8"/>
<path fill-rule="evenodd" clip-rule="evenodd" d="M94.8133 13.8866H96.1632V10.7042H96.1769L98.6501 13.8866H100V8.69282H98.6501V11.8684H98.636L96.1632 8.69282H94.8133V13.8866Z" fill="#5025B8"/>
</svg>
