<svg width="100" height="22" viewBox="0 0 100 22" fill="none" xmlns="http://www.w3.org/2000/svg">
<path fill-rule="evenodd" clip-rule="evenodd" d="M10.6748 4.60276L8.07867 3.10318L5.48691 4.60276L0 0V17.1888L8.07867 21.8523L16.1573 17.1888V0L10.6748 4.60276ZM8.07867 4.73278L14.0813 8.20003L8.07867 11.6629L2.07601 8.20003L8.07867 4.73278ZM4.18236 5.35689L1.4129 6.95615V3.0295L4.18236 5.35689ZM14.7444 16.374C14.7444 16.374 8.41673 20.0277 8.07867 20.2227C7.71461 20.0103 1.4129 16.374 1.4129 16.374V9.4439L8.07867 13.2925L14.7444 9.4439V16.374ZM14.7444 6.95182L11.975 5.35255L14.7444 3.0295V6.95182Z" fill="white"/>
<path fill-rule="evenodd" clip-rule="evenodd" d="M24.3177 11.0329H24.4555C24.8964 11.0329 25.5645 10.9709 25.5645 11.5978C25.5645 12.1695 24.8895 12.1488 24.49 12.1488H24.3177V11.0329ZM25.0479 13.1821C25.9985 13.1821 26.9284 12.8239 26.9284 11.7355C26.9284 11.0122 26.6116 10.5094 25.8676 10.413V10.3992C26.2878 10.1856 26.4394 9.80678 26.4394 9.33837C26.4394 8.34644 25.8194 7.98825 24.8964 7.98825H22.9676V13.1821H25.0479ZM24.3177 9.02151H24.4142C24.7792 9.02151 25.1994 9.04905 25.1994 9.52435C25.1994 9.96522 24.8275 10.0272 24.4693 10.0272H24.3177V9.02151Z" fill="white"/>
<path fill-rule="evenodd" clip-rule="evenodd" d="M31.0477 7.98825H29.6975V13.1821H32.6664V12.0386H31.0477V7.98825Z" fill="white"/>
<path fill-rule="evenodd" clip-rule="evenodd" d="M37.7844 7.81605C36.2896 7.81605 34.912 8.91818 34.912 10.4887C34.912 12.1695 36.1176 13.3543 37.7844 13.3543C39.4515 13.3543 40.6568 12.1695 40.6568 10.4887C40.6568 8.91818 39.2791 7.81605 37.7844 7.81605ZM37.7844 9.12484C38.5905 9.12484 39.2517 9.77923 39.2517 10.4956C39.2517 11.3911 38.5905 12.0455 37.7844 12.0455C36.9786 12.0455 36.3174 11.3911 36.3174 10.4956C36.3174 9.77923 36.9786 9.12484 37.7844 9.12484Z" fill="white"/>
<path fill-rule="evenodd" clip-rule="evenodd" d="M47.0632 8.11222C46.6637 7.94692 46.2641 7.85048 45.8301 7.85048C45.1 7.85048 44.3628 8.16734 43.8531 8.69086C43.3572 9.20059 43.0885 9.88256 43.0885 10.592C43.0885 11.3635 43.3502 12.0386 43.9221 12.5552C44.4591 13.0443 45.1481 13.3198 45.8713 13.3198C46.2916 13.3198 46.6155 13.2165 47.0632 13.0787V11.46C46.7808 11.7975 46.3397 12.011 45.899 12.011C45.0585 12.011 44.4936 11.4187 44.4936 10.5989C44.4936 9.79302 45.0518 9.15927 45.8783 9.15927C46.3397 9.15927 46.7875 9.35904 47.0632 9.73101V8.11222Z" fill="white"/>
<path fill-rule="evenodd" clip-rule="evenodd" d="M51.327 10.1305H51.3133V7.98825H49.9631V13.1821H51.3133V10.9296H51.327L53.0697 13.1821H54.8195L52.5668 10.4474L54.6334 7.98825H52.9596L51.327 10.1305Z" fill="white"/>
<path fill-rule="evenodd" clip-rule="evenodd" d="M57.2509 13.1821H59.1659C60.6055 13.1821 61.8041 12.0455 61.8041 10.5852C61.8041 9.12484 60.6125 7.98825 59.1659 7.98825H57.2509V13.1821ZM58.6011 9.13174H58.918C59.786 9.13174 60.399 9.65523 60.399 10.5852C60.399 11.5978 59.71 12.0386 58.9043 12.0386H58.6011V9.13174Z" fill="white"/>
<path fill-rule="evenodd" clip-rule="evenodd" d="M67.6798 12.2797L68.0175 13.1821H69.457L67.5008 7.98825H66.0268L64.0291 13.1821H65.462L65.82 12.2797H67.6798ZM67.3148 11.2464H66.1921L66.7499 9.59325H66.7636L67.3148 11.2464Z" fill="white"/>
<path fill-rule="evenodd" clip-rule="evenodd" d="M74.899 9.13174V7.98825H71.944V13.1821H74.899V12.0386H73.2938V11.1431H74.8164V9.99966H73.2938V9.13174H74.899Z" fill="white"/>
<path fill-rule="evenodd" clip-rule="evenodd" d="M77.4891 13.1821H78.8323L79.2663 10.1925H79.28L80.4716 13.1821H81.009L82.2558 10.1925H82.2695L82.6483 13.1821H83.9985L83.2132 7.98825H81.87L80.754 10.7643L79.7003 7.98825H78.3708L77.4891 13.1821Z" fill="white"/>
<path fill-rule="evenodd" clip-rule="evenodd" d="M89.2475 7.81605C87.7527 7.81605 86.375 8.91818 86.375 10.4887C86.375 12.1695 87.5804 13.3543 89.2475 13.3543C90.9142 13.3543 92.1199 12.1695 92.1199 10.4887C92.1199 8.91818 90.7422 7.81605 89.2475 7.81605ZM89.2475 9.12484C90.0532 9.12484 90.7145 9.77923 90.7145 10.4956C90.7145 11.3911 90.0532 12.0455 89.2475 12.0455C88.4413 12.0455 87.7801 11.3911 87.7801 10.4956C87.7801 9.77923 88.4413 9.12484 89.2475 9.12484Z" fill="white"/>
<path fill-rule="evenodd" clip-rule="evenodd" d="M94.8133 13.1821H96.1632V9.99966H96.1769L98.6501 13.1821H100V7.98825H98.6501V11.1638H98.6361L96.1632 7.98825H94.8133V13.1821Z" fill="white"/>
</svg>
