<svg xmlns="http://www.w3.org/2000/svg" width="252.364" height="62.094" viewBox="0 0 252.364 62.094">
  <g id="Footer-logo-bits0" transform="translate(-514.206 -3653.049)">
    <path id="Path_49" data-name="Path 49" d="M640.166,32.138a10.613,10.613,0,0,0,1.123-5.319v-.6a6.706,6.706,0,0,0-1.611-4.48,5.453,5.453,0,0,0-4.284-1.768H606.421V52.441h26.2a10.452,10.452,0,0,0,6.043-1.724A5.539,5.539,0,0,0,641.244,46v-5.82a6.875,6.875,0,0,0-1.433-4.2,4.612,4.612,0,0,0-1.906-1.488,4.626,4.626,0,0,0,2.261-2.357m-8.008,13.319H615.552V38.046h13.533a2.853,2.853,0,0,1,2.157.884,4.017,4.017,0,0,1,.916,2.888Zm0-16.163a1.642,1.642,0,0,1-.547,1.311,1.593,1.593,0,0,1-1.2.442H615.552V27.305h16.606Z" transform="translate(-5 3653.049)" fill="#17191E"/>
    <rect id="Rectangle_76" data-name="Rectangle 76" width="9.131" height="32.473" transform="translate(640.425 3673.017)" fill="#17191E"/>
    <path id="Path_50" data-name="Path 50" d="M658.693,19.967V27.3h12.721V52.44h9.16V27.3h12.987V19.967Z" transform="translate(-5 3653.049)" fill="#17191E"/>
    <path id="Path_51" data-name="Path 51" d="M730.911,32.948a7.351,7.351,0,0,0-4.964-1.871h-19.1V27.305h23.078V19.967h-23.6a9.949,9.949,0,0,0-6.146,1.842,6.1,6.1,0,0,0-2.482,5.01v4.759c0,2.3.575,3.934,1.713,4.921,1.153,1,2.941,1.517,5.349,1.547h18.675v7.411H697.7v6.984h26.269a11.034,11.034,0,0,0,6.043-1.636,5.542,5.542,0,0,0,2.556-4.862V37.56a6.31,6.31,0,0,0-1.655-4.612" transform="translate(-5 3653.049)" fill="#17191E"/>
    <path id="Path_52" data-name="Path 52" d="M770,21.794a5.518,5.518,0,0,0-4.4-1.827H745.33a9.832,9.832,0,0,0-6.175,1.872,5.939,5.939,0,0,0-2.453,4.98V46.193a6.653,6.653,0,0,0,1.507,4.509,5.625,5.625,0,0,0,4.462,1.739h20.3a10.608,10.608,0,0,0,6.058-1.709,5.426,5.426,0,0,0,2.541-4.789V26.229A6.543,6.543,0,0,0,770,21.794m-7.521,23.663H745.847V27.305h16.636Z" transform="translate(-5 3653.049)" fill="#17191E"/>
    <path id="Path_53" data-name="Path 53" d="M749.64,49.014h-8.6l17.21-24.6h8.607Z" transform="translate(-5 3653.049)" fill="#17191E"/>
    <path id="Path_54" data-name="Path 54" d="M554.7,17.725V0L519.206,53.217,554.7,62.094V48.786l-17.74-4.432Z" transform="translate(-5 3653.049)" fill="#cc312f"/>
    <path id="Path_55" data-name="Path 55" d="M554.7,17.725V0l35.49,53.217L554.7,62.094V48.786l17.745-4.432Z" transform="translate(-5 3653.049)" fill="#e5721b"/>
    <path id="Path_56" data-name="Path 56" d="M554.7,17.725v22.2l-17.74,4.428Z" transform="translate(-5 3653.049)" fill="#e5721b"/>
    <path id="Path_57" data-name="Path 57" d="M554.7,48.786l-17.74-4.432,17.74-4.427,17.745,4.427Z" transform="translate(-5 3653.049)" fill="#ee8e17"/>
    <path id="Path_58" data-name="Path 58" d="M554.7,17.725,572.44,44.354,554.7,39.926Z" transform="translate(-5 3653.049)" fill="#cc312f"/>
  </g>
</svg>
