<svg xmlns="http://www.w3.org/2000/svg" width="64" height="64" fill="none" viewBox="0 0 64 64" class="size-16"><circle cx="32" cy="32" r="25.19" stroke="#60646C" stroke-width="1.62"></circle><path stroke="#60646C" stroke-width="1.62" d="M32 6.81c4.332 0 8.36 2.686 11.343 7.249C46.32 18.614 48.19 24.955 48.19 32s-1.869 13.386-4.847 17.941c-2.983 4.563-7.011 7.25-11.343 7.25s-8.36-2.687-11.343-7.25C17.68 45.386 15.81 39.045 15.81 32s1.869-13.386 4.847-17.941C23.64 9.496 27.668 6.809 32 6.809Z"></path><path stroke="#60646C" stroke-width="1.62" d="M57.19 32c0 4.332-2.686 8.36-7.249 11.343C45.386 46.32 39.045 48.19 32 48.19s-13.386-1.869-17.941-4.847C9.496 40.36 6.809 36.332 6.809 32s2.687-8.36 7.25-11.343C18.614 17.68 24.955 15.81 32 15.81s13.386 1.869 17.941 4.847c4.563 2.983 7.25 7.011 7.25 11.343Z"></path><path fill="#000" d="M33.004 21.24h-2.008c-.927 0-1.777.495-2.204 1.285L20.28 38.26a1.31 1.31 0 0 0-.04 1.174l.704 1.544c.439.961 1.82 1.058 2.399.169l8.069-12.388a.7.7 0 0 1 .588-.312.7.7 0 0 1 .588.312l8.069 12.388c.58.89 1.96.792 2.399-.169l.705-1.544a1.31 1.31 0 0 0-.04-1.174l-8.513-15.735c-.427-.79-1.277-1.285-2.204-1.285"></path></svg>