<svg width="141" height="20" viewBox="0 0 141 20" fill="none" xmlns="http://www.w3.org/2000/svg">
<path d="M23.3069 2.14022L27.8065 9.90848C27.8235 9.93768 27.8323 9.97079 27.8323 10.0045C27.8323 10.0382 27.8235 10.0713 27.8065 10.1005L23.3069 17.8765C23.1511 18.1463 22.9265 18.3704 22.6559 18.5258C22.3853 18.6813 22.0783 18.7627 21.766 18.7618H17.6574L22.7291 10.0083L17.694 1.31826L17.8538 1.30097L18.0118 1.26449H21.766C22.0773 1.26261 22.3837 1.34256 22.6542 1.4963C22.9248 1.65004 23.1499 1.87213 23.3069 2.14022ZM4.773 2.14022L0.275318 9.90848C0.258412 9.93768 0.249512 9.97079 0.249512 10.0045C0.249512 10.0382 0.258412 10.0713 0.275318 10.1005L4.77493 17.8765C4.93075 18.1463 5.15534 18.3704 5.42595 18.5258C5.69656 18.6813 6.00357 18.7627 6.31589 18.7618H10.4264L5.35664 10.0083L10.4264 1.25488H6.31204C6.00037 1.25465 5.69415 1.33638 5.42428 1.49182C5.15441 1.64726 4.93042 1.87091 4.77493 2.14022H4.773Z" fill="#FFFFFF"/>
<path d="M10.3015 18.7618H6.4375L15.9529 2.38027C16.1453 2.03945 16.425 1.75567 16.7634 1.55794C17.1019 1.36021 17.4869 1.25563 17.8791 1.25488H21.745L12.2315 17.6364C12.0391 17.9781 11.7589 18.2624 11.4197 18.4602C11.0804 18.658 10.6945 18.7621 10.3015 18.7618Z" fill="#FFFFFF"/>
<path d="M39.1713 10.0934V17.37C39.1713 17.7598 39.3261 18.1338 39.6018 18.4102C39.8776 18.6866 40.2519 18.8429 40.6429 18.8449H43.1084C47.9008 18.8449 48.887 18.6317 50.2258 17.2836C51.6723 15.8413 52.2656 13.9017 52.2907 10.3296C52.3138 6.2851 51.6492 4.03816 49.9792 2.5959C48.8639 1.60302 47.4405 1.34184 42.9582 1.34184H40.6429C40.4485 1.34184 40.2559 1.38005 40.0763 1.45429C39.8967 1.52853 39.7336 1.63735 39.5962 1.77451C39.4588 1.91167 39.3499 2.07449 39.2756 2.25366C39.2014 2.43282 39.1633 2.62482 39.1636 2.81867L39.1713 10.0934ZM47.6466 4.4165C49.045 5.26918 49.2588 6.0028 49.2588 9.98583C49.2588 13.2257 49.2126 13.6347 48.7137 14.5258C47.9548 15.9681 47.2421 16.2542 44.3951 16.2542H42.0182V3.96327H44.4606C46.4543 3.94406 47.0225 4.03816 47.6408 4.4165H47.6466ZM68.307 1.32455H70.8111C70.9662 1.32474 71.1172 1.37416 71.2422 1.46567C71.3673 1.55717 71.4598 1.686 71.5065 1.83348L75.617 15.1442C75.6273 15.1763 75.6477 15.2043 75.675 15.2241C75.7024 15.244 75.7353 15.2547 75.7691 15.2547C75.803 15.2547 75.8359 15.244 75.8633 15.2241C75.8906 15.2043 75.9109 15.1763 75.9213 15.1442L80.0145 1.8354C80.0612 1.68741 80.1539 1.55811 80.2793 1.46625C80.4047 1.37439 80.5562 1.32476 80.7118 1.32455H83.239L82.7651 2.79179C82.5282 3.6195 81.2473 7.54493 79.9432 11.5433L77.5779 18.8276H73.9007L71.1251 10.2413C69.5841 5.53612 68.3841 1.59918 68.3494 1.49163C68.3321 1.43018 68.307 1.32455 68.307 1.32455ZM102.118 9.82835C100.6 14.5104 99.3921 18.4435 99.3439 18.5857C99.2727 18.8046 99.2611 18.8449 99.2611 18.8449H102.15L102.859 16.7574L103.547 14.7006H109.851L110.564 16.7574L111.252 18.8392H114.241L112.011 12.0273C110.778 8.29007 109.507 4.36464 109.164 3.27766L108.586 1.4513C108.575 1.41837 108.554 1.38965 108.526 1.36929C108.498 1.34892 108.465 1.33797 108.43 1.338H105.013C104.978 1.33783 104.945 1.34851 104.917 1.36851C104.889 1.38851 104.868 1.41681 104.857 1.44938L102.118 9.82835ZM109.023 11.649L109.073 11.8064C109.079 11.8266 109.08 11.8478 109.077 11.8685C109.073 11.8892 109.065 11.9088 109.052 11.9257C109.04 11.9426 109.023 11.9564 109.005 11.9661C108.986 11.9757 108.965 11.9809 108.944 11.9812H104.419C104.398 11.9813 104.377 11.9763 104.358 11.9668C104.339 11.9573 104.323 11.9435 104.31 11.9265C104.298 11.9094 104.29 11.8897 104.286 11.8688C104.283 11.848 104.284 11.8266 104.29 11.8064L104.371 11.5548L106.579 4.31855C106.587 4.29368 106.602 4.27196 106.623 4.25655C106.645 4.24114 106.67 4.23283 106.696 4.23283C106.722 4.23283 106.748 4.24114 106.769 4.25655C106.79 4.27196 106.806 4.29368 106.814 4.31855L109.023 11.649ZM66.454 18.868H57.3604C57.0942 18.868 56.8305 18.8156 56.5845 18.714C56.3385 18.6123 56.1151 18.4634 55.9269 18.2755C55.7387 18.0877 55.5895 17.8648 55.4877 17.6195C55.386 17.3741 55.3338 17.1112 55.3341 16.8457V3.36984C55.3338 3.10437 55.386 2.84145 55.4877 2.59611C55.5895 2.35077 55.7387 2.12783 55.9269 1.94002C56.1151 1.75221 56.3385 1.60322 56.5845 1.50157C56.8305 1.39992 57.0942 1.3476 57.3604 1.3476H66.454V4.08618H58.8879C58.6987 4.08668 58.5174 4.16197 58.3838 4.29554C58.2502 4.4291 58.1752 4.61003 58.1752 4.79867V8.73369H65.6835V11.4012H58.1714V15.4342C58.1714 15.6226 58.2464 15.8034 58.3801 15.9366C58.5138 16.0699 58.695 16.1448 58.884 16.1448H66.454V18.868ZM140.998 18.8833H131.903C131.636 18.8836 131.372 18.8313 131.125 18.7295C130.879 18.6278 130.655 18.4785 130.466 18.2902C130.278 18.102 130.129 17.8785 130.027 17.6326C129.925 17.3867 129.874 17.1232 129.874 16.8572V3.38521C129.874 3.11957 129.926 2.85649 130.028 2.61103C130.13 2.36557 130.279 2.14253 130.468 1.9547C130.656 1.76687 130.88 1.61792 131.126 1.51638C131.372 1.41484 131.636 1.36271 131.903 1.36296H140.998V4.10346H133.428C133.334 4.10321 133.241 4.1214 133.155 4.157C133.068 4.19259 132.989 4.24489 132.923 4.3109C132.857 4.37691 132.804 4.45533 132.768 4.54166C132.732 4.628 132.713 4.72056 132.714 4.81403V8.74906H140.214V11.4166H132.715V15.4495C132.716 15.6382 132.791 15.8189 132.925 15.9521C133.059 16.0853 133.241 16.1601 133.43 16.1601H140.998V18.8833ZM94.6902 9.94358C94.662 9.93035 94.6378 9.90993 94.6201 9.88439C94.6023 9.85885 94.5916 9.8291 94.5891 9.79813C94.5866 9.76716 94.5923 9.73607 94.6056 9.708C94.619 9.67992 94.6395 9.65586 94.6652 9.63823C95.267 9.21007 95.7564 8.64346 96.0917 7.98651C96.427 7.32955 96.5985 6.60163 96.5914 5.86452C96.5914 3.77122 95.2431 2.01016 93.4016 1.50124C93.3111 1.47627 93.2206 1.45322 93.1281 1.43402C92.8565 1.37833 92.0552 1.34568 92.0552 1.34568H86.6618C86.2695 1.34568 85.8932 1.50107 85.6158 1.77767C85.3384 2.05427 85.1825 2.42942 85.1825 2.82059V17.3642C85.1825 17.7554 85.3384 18.1306 85.6158 18.4072C85.8932 18.6838 86.2695 18.8392 86.6618 18.8392H92.086C92.1111 18.8392 92.764 18.8257 93.1435 18.818C93.3519 18.8165 93.5596 18.7946 93.7637 18.7527C95.7612 18.3322 97.2675 16.4482 97.2675 14.1878C97.2803 13.3106 97.0454 12.4475 96.5897 11.697C96.134 10.9465 95.4758 10.3389 94.6902 9.94358ZM87.8349 3.94406H91.7971C92.9894 3.94406 93.9564 5.00224 93.9564 6.31007C93.9564 7.6179 92.9933 8.65111 91.7971 8.65111H87.8349V3.94406ZM92.4058 16.235H87.8349V11.0843H92.2228C93.4941 11.0843 94.5246 12.204 94.5246 13.6424C94.5188 15.0078 93.5865 16.1255 92.4 16.2331L92.4058 16.235ZM127.045 13.8786C127.045 15.317 126.573 16.7439 125.444 17.6446C124.315 18.5453 122.534 19.108 120.334 18.9697C118.483 18.8507 117.238 18.553 115.813 17.8578L115.684 14.593C116.857 15.1154 117.404 15.4361 118.215 15.6493C118.931 15.8541 119.663 16.0012 120.403 16.0891C121.224 16.1659 122.555 16.1159 123.16 15.6723C123.392 15.4898 123.585 15.2627 123.728 15.0044C123.871 14.7461 123.961 14.4619 123.992 14.1686C124.044 13.6733 123.947 13.1737 123.712 12.734C123.443 12.2443 122.724 11.8295 122.008 11.5587C120.877 11.1343 118.704 10.3065 117.633 9.67472C117.002 9.30726 116.483 8.77635 116.131 8.13835C115.815 7.53148 115.684 6.6884 115.684 5.87413C115.684 4.33776 116.137 3.29879 117.179 2.4173C118.221 1.5358 119.66 1.10946 121.497 1.10946C122.369 1.10588 123.238 1.21366 124.082 1.43018C124.873 1.63693 125.637 1.93536 126.359 2.31935L126.38 5.22501C125.344 4.71429 124.255 4.317 123.133 4.04009C122.566 3.89522 121.984 3.82167 121.399 3.82115C120.467 3.8442 119.931 3.97095 119.415 4.34544C118.899 4.71993 118.716 5.20965 118.731 5.90677C118.747 6.55013 118.997 7.2511 120.149 7.68512C120.9 7.96743 122.268 8.53012 123.762 9.13507C124.583 9.46082 125.331 9.94289 125.966 10.5543C126.629 11.2879 127.045 12.0561 127.045 13.8786Z" fill="#FFFFFF"/>
</svg>
