<?xml version="1.0" encoding="UTF-8"?>
<svg id="Logotipo" xmlns="http://www.w3.org/2000/svg" viewBox="0 0 1950.01 392.65">
  <defs>
    <style>
      .cls-1 {
        fill: #aaff82;
      }

      .cls-2 {
        fill: #FFFFFF;
      }
    </style>
  </defs>
  <g>
    <path class="cls-2" d="M641.11,240.74l43.73-11.41c1.9,43.73,35.65,75.11,82.71,75.11,38.03,0,67.5-20.92,67.5-50.39,0-73.68-180.64-51.34-180.64-150.21,0-49.44,45.63-80.81,103.63-80.81s103.63,33.27,109.33,82.71l-43.73,12.36c-3.8-32.32-30.42-57.04-68.45-57.04-30.42,0-57.04,16.16-57.04,40.88,0,64.65,180.63,45.63,180.63,152.11,0,52.76-45.16,89.37-112.18,89.37s-121.69-41.83-125.49-102.68Z"/>
    <path class="cls-2" d="M894.47,218.87c0-72.73,47.54-124.54,114.09-124.54,72.73,0,117.41,60.37,111.71,140.23h-183.49c6.66,41.83,36.13,70.83,76.53,70.83,32.32,0,57.99-19.01,63.7-45.63l40.88,13.31c-11.41,41.83-54.19,70.35-105.53,70.35-68.93,0-117.89-51.81-117.89-124.54ZM1079.86,197.48c-5.7-39.93-34.22-66.07-70.35-66.07s-65.6,27.1-72.25,66.07h142.61Z"/>
    <path class="cls-2" d="M1149.73,14.47h38.03v323.24h-38.03V14.47Z"/>
    <path class="cls-2" d="M1359.36,19.22l-11.41,37.08c-22.82-15.21-55.14-9.03-55.14,20.92v32.8h57.04v37.08h-57.04v190.62h-38.03v-190.62h-36.13v-37.08h36.13v-32.8c0-61.8,62.75-82.71,104.58-57.99Z"/>
    <path class="cls-2" d="M1354.13,218.87c0-72.73,47.54-124.54,114.09-124.54,72.73,0,117.41,60.37,111.71,140.23h-183.49c6.66,41.83,36.13,70.83,76.53,70.83,32.32,0,57.99-19.01,63.7-45.63l40.88,13.31c-11.41,41.83-54.19,70.35-105.53,70.35-68.93,0-117.89-51.81-117.89-124.54ZM1539.51,197.48c-5.7-39.93-34.22-66.07-70.35-66.07s-65.6,27.1-72.25,66.07h142.61Z"/>
    <path class="cls-2" d="M1609.39,100.03h32.32l3.8,38.03c11.88-34.7,48.49-51.34,89.37-39.93l-1.9,44.68c-38.03-19.01-85.56-3.33-85.56,50.39v144.51h-38.03V100.03Z"/>
    <path class="cls-2" d="M1741.06,267.36l41.83-11.41c1.9,28.52,28.52,51.34,62.75,51.34,26.62,0,47.54-14.26,47.54-34.23,0-53.24-140.7-32.32-140.7-112.18,0-38.98,34.22-66.55,83.66-66.55s86.04,27.1,91.27,64.65l-39.93,10.46c-.95-23.29-21.87-39.93-50.39-39.93-25.67,0-43.73,13.31-43.73,31.37,0,51.34,141.66,30.42,141.66,112.18,0,40.88-38.03,70.35-91.27,70.35-57.04,0-98.87-32.32-102.68-76.06Z"/>
  </g>
  <path class="cls-1" d="M437.28,145.54c-46.08-46.08-121.06-46.08-167.13,0l-49.29,49.29h0s-20.91,20.91-20.91,20.91c-13.09,13.09-30.49,20.29-48.99,20.29s-35.91-7.21-48.99-20.29l-17.81-17.81,114.52-114.52c29.59-29.59,77.74-29.59,107.33,0l34.57-34.57C291.92.17,212.76.17,164.1,48.83L15.01,197.92l52.39,52.39c23.04,23.04,53.3,34.56,83.57,34.56s60.53-11.52,83.57-34.56l20.91-20.91h0s49.29-49.3,49.29-49.3c13.09-13.09,30.49-20.29,48.99-20.29s35.91,7.21,48.99,20.29l17.81,17.81-114.52,114.52c-14.34,14.33-33.39,22.23-53.67,22.23s-39.33-7.9-53.66-22.23l-34.57,34.57c23.57,23.57,54.91,36.55,88.24,36.55s64.67-12.98,88.24-36.55l149.1-149.1-52.39-52.39Z"/>
</svg>
